<svg width="26" height="26" viewBox="0 0 26 26" fill="none" xmlns="http://www.w3.org/2000/svg">
<path d="M20.2917 2.59376H6.75C5.49375 2.59376 3.625 3.42605 3.625 5.71876V20.3021C3.625 22.5948 5.49375 23.4271 6.75 23.4271H22.375V21.3438H6.7625C6.28125 21.3313 5.70833 21.1406 5.70833 20.3021C5.70833 20.1969 5.71771 20.1031 5.73333 20.0177C5.85 19.4188 6.34063 19.2708 6.76146 19.2604H21.3333C21.3521 19.2604 21.3656 19.2511 21.3844 19.25H22.375V4.67709C22.375 3.52813 21.4406 2.59376 20.2917 2.59376ZM20.2917 17.1771H5.70833V5.71876C5.70833 4.87917 6.28125 4.68959 6.75 4.67709H14.0417V11.9688L16.125 10.9271L18.2083 11.9688V4.67709H20.2917V17.1771Z" fill="currentColor"/>
</svg>
