<svg width="26" height="26" viewBox="0 0 26 26" fill="none" xmlns="http://www.w3.org/2000/svg">
<path d="M20.4459 3.59479C20.2603 3.28701 19.9985 3.03224 19.6857 2.85508C19.373 2.67791 19.0199 2.58432 18.6605 2.58334H7.33962C6.61254 2.58334 5.92817 2.97084 5.55421 3.59479L2.73233 8.29688C2.63468 8.45876 2.58317 8.64428 2.58337 8.83334C2.58753 9.83877 2.95785 10.8082 3.62504 11.5604V20.2917C3.62504 21.4406 4.55942 22.375 5.70837 22.375H20.2917C21.4407 22.375 22.375 21.4406 22.375 20.2917V11.5604C23.0422 10.8082 23.4125 9.83877 23.4167 8.83334C23.4169 8.64428 23.3654 8.45876 23.2677 8.29688L20.4459 3.59479ZM21.3167 9.09479C21.2524 9.59773 21.0072 10.06 20.6268 10.3953C20.2465 10.7306 19.7571 10.916 19.25 10.9167C18.1011 10.9167 17.1667 9.98229 17.1667 8.83334C17.1667 8.7625 17.1407 8.7 17.1261 8.63334L17.1469 8.62917L16.3542 4.66667H18.6605L21.3167 9.09479ZM11.7698 4.66667H14.2292L15.0761 8.90104C15.0396 10.0177 14.125 10.9167 13 10.9167C11.875 10.9167 10.9605 10.0177 10.924 8.90104L11.7698 4.66667ZM7.33962 4.66667H9.64587L8.85421 8.62917L8.87504 8.63334C8.85942 8.7 8.83337 8.7625 8.83337 8.83334C8.83337 9.98229 7.899 10.9167 6.75004 10.9167C6.24301 10.916 5.75359 10.7306 5.37325 10.3953C4.99291 10.06 4.74767 9.59773 4.68337 9.09479L7.33962 4.66667ZM10.9167 20.2917V17.1667H15.0834V20.2917H10.9167ZM17.1667 20.2917V17.1667C17.1667 16.0177 16.2323 15.0833 15.0834 15.0833H10.9167C9.76775 15.0833 8.83337 16.0177 8.83337 17.1667V20.2917H5.70837V12.8521C6.04275 12.9385 6.38754 13 6.75004 13C7.34152 13.0003 7.92624 12.8744 8.46515 12.6306C9.00406 12.3868 9.48473 12.0309 9.87504 11.5865C10.6386 12.4531 11.7573 13 13 13C14.2427 13 15.3615 12.4531 16.125 11.5865C16.5154 12.0309 16.996 12.3868 17.5349 12.6306C18.0738 12.8744 18.6586 13.0003 19.25 13C19.6125 13 19.9573 12.9385 20.2917 12.8521V20.2917H17.1667Z" fill="currentColor"/>
</svg>
