<svg width="20" height="20" viewBox="0 0 20 20" fill="none" xmlns="http://www.w3.org/2000/svg">
<path d="M2.22172 17.778C2.68559 18.2425 3.23669 18.6108 3.84334 18.8617C4.44999 19.1126 5.10023 19.2411 5.75672 19.24C6.41335 19.2411 7.06374 19.1125 7.67054 18.8617C8.27735 18.6108 8.82863 18.2425 9.29272 17.778L12.1207 14.949L10.7067 13.535L7.87872 16.364C7.31519 16.925 6.55239 17.2399 5.75722 17.2399C4.96205 17.2399 4.19925 16.925 3.63572 16.364C3.07422 15.8007 2.75892 15.0378 2.75892 14.2425C2.75892 13.4471 3.07422 12.6842 3.63572 12.121L6.46472 9.29296L5.05072 7.87896L2.22172 10.707C1.28552 11.6454 0.759766 12.9169 0.759766 14.2425C0.759766 15.568 1.28552 16.8395 2.22172 17.778ZM17.7777 9.29296C18.7134 8.35425 19.2388 7.08288 19.2388 5.75746C19.2388 4.43204 18.7134 3.16068 17.7777 2.22196C16.8393 1.28577 15.5678 0.76001 14.2422 0.76001C12.9166 0.76001 11.6452 1.28577 10.7067 2.22196L7.87872 5.05096L9.29272 6.46496L12.1207 3.63596C12.6842 3.07495 13.447 2.75999 14.2422 2.75999C15.0374 2.75999 15.8002 3.07495 16.3637 3.63596C16.9252 4.19923 17.2405 4.96213 17.2405 5.75746C17.2405 6.55279 16.9252 7.31569 16.3637 7.87896L13.5347 10.707L14.9487 12.121L17.7777 9.29296Z" fill="#2C3A3D"/>
<path d="M6.46371 14.95L5.04871 13.536L13.5357 5.05005L14.9497 6.46505L6.46371 14.95Z" fill="#2C3A3D"/>
</svg>
