<svg width="18" height="19" viewBox="0 0 18 19" fill="none" xmlns="http://www.w3.org/2000/svg">
<path d="M18 9.29C18 13.44 15.79 18.5 9.13 18.5C4.12461 18.5332 0.03852 14.5053 0 9.5C0.03852 4.49461 4.12461 0.4667 9.13 0.49996C11.2007 0.50764 13.2085 1.21213 14.83 2.49996C14.942 2.59149 15.0109 2.72557 15.02 2.86996C15.0206 3.01605 14.963 3.15637 14.86 3.25996C14.209 3.85516 13.5882 4.48261 13 5.13996C12.8289 5.32826 12.5422 5.35432 12.34 5.19996C11.4161 4.51624 10.2888 4.16394 9.14 4.19996C6.18528 4.19996 3.79 6.59524 3.79 9.55C3.79 12.5047 6.18528 14.9 9.14 14.9C12.14 14.9 13.41 13.62 14.07 11.35H9.5C9.2239 11.35 9 11.1261 9 10.85V8.2C9 7.9238 9.2239 7.7 9.5 7.7H17.5C17.7302 7.6985 17.9244 7.8711 17.95 8.1C17.9871 8.4955 18.0038 8.8927 18 9.29Z" fill="currentColor"/>
</svg>
