<svg width="42" height="41" viewBox="0 0 42 41" fill="none" xmlns="http://www.w3.org/2000/svg">
<path d="M19.12 38.5V23.95C18.496 23.5833 17.9934 23.1087 17.612 22.526C17.2307 21.9433 17.04 21.268 17.04 20.5C17.04 19.4 17.4477 18.4587 18.2631 17.676C19.0784 16.8933 20.0574 16.5013 21.2 16.5C22.3426 16.4987 23.3223 16.8907 24.1391 17.676C24.9558 18.4613 25.3628 19.4027 25.36 20.5C25.36 21.2667 25.1694 21.95 24.788 22.55C24.4067 23.15 23.904 23.6167 23.28 23.95V38.5C23.28 39.0667 23.0803 39.542 22.681 39.926C22.2816 40.31 21.788 40.5013 21.2 40.5C20.6121 40.4987 20.1184 40.3067 19.7191 39.924C19.3197 39.5413 19.12 39.0667 19.12 38.5ZM8.35603 33.55C7.94003 33.95 7.43736 34.15 6.84803 34.15C6.25869 34.15 5.77336 33.9333 5.39203 33.5C3.83203 31.7333 2.60968 29.75 1.72499 27.55C0.840294 25.35 0.398641 23 0.400028 20.5C0.400028 17.7333 0.946374 15.1333 2.03907 12.7C3.13176 10.2667 4.61341 8.15 6.48403 6.35C8.35464 4.55 10.556 3.12534 13.088 2.076C15.6201 1.02667 18.3241 0.501336 21.2 0.500003C24.076 0.498669 26.78 1.024 29.312 2.076C31.8441 3.128 34.0454 4.55267 35.916 6.35C37.7866 8.14733 39.269 10.264 40.3631 12.7C41.4571 15.136 42.0028 17.736 42 20.5C42 23 41.5577 25.35 40.673 27.55C39.7883 29.75 38.5666 31.7333 37.008 33.5C36.6267 33.9333 36.1504 34.1587 35.5791 34.176C35.0078 34.1933 34.5134 34.0013 34.096 33.6C33.7147 33.2333 33.524 32.7667 33.524 32.2C33.524 31.6333 33.7147 31.1333 34.096 30.7C35.2747 29.3 36.1934 27.7333 36.852 26C37.5107 24.2667 37.84 22.4333 37.84 20.5C37.84 16.0333 36.228 12.25 33.004 9.15C29.78 6.05 25.8454 4.5 21.2 4.5C16.5547 4.5 12.62 6.05 9.39602 9.15C6.17203 12.25 4.56003 16.0333 4.56003 20.5C4.56003 22.4333 4.88936 24.2587 5.54803 25.976C6.20669 27.6933 7.14269 29.2513 8.35603 30.65C8.73736 31.0833 8.93635 31.5753 8.95298 32.126C8.96963 32.6767 8.77064 33.1513 8.35603 33.55ZM14.232 27.9C13.816 28.3 13.3134 28.5087 12.724 28.526C12.1347 28.5433 11.6667 28.318 11.32 27.85C10.5227 26.8167 9.88968 25.6833 9.42099 24.45C8.95229 23.2167 8.71864 21.9 8.72003 20.5C8.72003 17.1667 9.93336 14.3333 12.36 12C14.7867 9.66667 17.7334 8.5 21.2 8.5C24.6667 8.5 27.6134 9.66667 30.04 12C32.4667 14.3333 33.68 17.1667 33.68 20.5C33.68 21.9 33.4464 23.2253 32.9791 24.476C32.5118 25.7267 31.8787 26.8513 31.08 27.85C30.7334 28.2833 30.2654 28.5087 29.676 28.526C29.0867 28.5433 28.584 28.3513 28.168 27.95C27.7867 27.5833 27.5877 27.1167 27.5711 26.55C27.5544 25.9833 27.7187 25.4667 28.064 25C28.5147 24.3333 28.8704 23.6253 29.1311 22.876C29.3918 22.1267 29.5214 21.3347 29.52 20.5C29.52 18.3 28.7054 16.4167 27.076 14.85C25.4467 13.2833 23.488 12.5 21.2 12.5C18.912 12.5 16.9534 13.2833 15.324 14.85C13.6947 16.4167 12.88 18.3 12.88 20.5C12.88 21.3667 13.0104 22.1667 13.2711 22.9C13.5318 23.6333 13.8867 24.3333 14.336 25C14.6827 25.4667 14.8477 25.9753 14.8311 26.526C14.8144 27.0767 14.6147 27.5347 14.232 27.9Z" fill="currentColor"/>
</svg>
