<svg width="21" height="21" viewBox="0 0 21 21" fill="none" xmlns="http://www.w3.org/2000/svg">
<path d="M18.3157 16.1844C17.8278 15.7171 17.353 15.2363 16.8917 14.7427C16.5042 14.349 16.2709 14.0625 16.2709 14.0625L13.3542 12.6698C14.5219 11.3455 15.1664 9.64062 15.1667 7.875C15.1667 3.85521 11.8959 0.583336 7.87504 0.583336C3.85421 0.583336 0.583374 3.85521 0.583374 7.875C0.583374 11.8948 3.85421 15.1667 7.87504 15.1667C9.7115 15.1667 11.3855 14.4792 12.6698 13.3552L14.0625 16.2719C14.0625 16.2719 14.349 16.5052 14.7427 16.8927C15.1459 17.2708 15.6761 17.7823 16.1844 18.3167L17.599 19.7667L18.2282 20.4396L20.4375 18.2302L19.7646 17.601C19.3698 17.2135 18.8427 16.699 18.3157 16.1844ZM7.87504 13.0833C5.00317 13.0833 2.66671 10.7469 2.66671 7.875C2.66671 5.00313 5.00317 2.66667 7.87504 2.66667C10.7469 2.66667 13.0834 5.00313 13.0834 7.875C13.0834 10.7469 10.7469 13.0833 7.87504 13.0833Z" fill="currentColor"/>
</svg>
