<svg width="26" height="26" viewBox="0 0 26 26" fill="none" xmlns="http://www.w3.org/2000/svg">
<path d="M13 2.58334C10.2483 2.61843 7.6191 3.72716 5.67315 5.67311C3.7272 7.61906 2.61847 10.2482 2.58337 13C2.59624 14.603 2.97892 16.1815 3.70162 17.6124C4.42431 19.0434 5.46753 20.2882 6.75004 21.25V21.3333H6.85421C8.61794 22.6849 10.778 23.4173 13 23.4173C15.2221 23.4173 17.3821 22.6849 19.1459 21.3333H19.25V21.25C20.5326 20.2882 21.5758 19.0434 22.2985 17.6124C23.0212 16.1815 23.4038 14.603 23.4167 13C23.3816 10.2482 22.2729 7.61906 20.3269 5.67311C18.381 3.72716 15.7518 2.61843 13 2.58334ZM8.90629 20.2188C9.05836 19.5223 9.44395 18.8988 9.99909 18.4517C10.5542 18.0046 11.2456 17.7606 11.9584 17.7604H14.0417C14.7545 17.7606 15.4459 18.0046 16.001 18.4517C16.5561 18.8988 16.9417 19.5223 17.0938 20.2188C15.853 20.9488 14.4396 21.3337 13 21.3337C11.5605 21.3337 10.1471 20.9488 8.90629 20.2188ZM18.8438 18.875C18.4476 17.9281 17.7804 17.1193 16.926 16.5504C16.0716 15.9814 15.0682 15.6776 14.0417 15.6771H11.9584C10.9319 15.6776 9.92845 15.9814 9.07408 16.5504C8.21971 17.1193 7.55251 17.9281 7.15629 18.875C6.37573 18.1073 5.7541 17.1933 5.32693 16.1852C4.89976 15.1772 4.67541 14.0948 4.66671 13C4.69373 10.7983 5.58037 8.6943 7.13736 7.13732C8.69434 5.58034 10.7983 4.69369 13 4.66667C15.2018 4.69369 17.3057 5.58034 18.8627 7.13732C20.4197 8.6943 21.3064 10.7983 21.3334 13C21.3247 14.0948 21.1003 15.1772 20.6732 16.1852C20.246 17.1933 19.6243 18.1073 18.8438 18.875Z" fill="currentColor"/>
<path d="M13.0001 6.75009C12.4494 6.73726 11.9018 6.83627 11.3905 7.04112C10.8792 7.24598 10.4147 7.55242 10.0252 7.94192C9.63573 8.33141 9.32928 8.79587 9.12443 9.30719C8.91958 9.81851 8.82057 10.3661 8.8334 10.9168C8.82057 11.4674 8.91958 12.015 9.12443 12.5263C9.32928 13.0376 9.63573 13.5021 10.0252 13.8916C10.4147 14.2811 10.8792 14.5875 11.3905 14.7924C11.9018 14.9972 12.4494 15.0963 13.0001 15.0834C13.5507 15.0963 14.0983 14.9972 14.6096 14.7924C15.121 14.5875 15.5854 14.2811 15.9749 13.8916C16.3644 13.5021 16.6708 13.0376 16.8757 12.5263C17.0806 12.015 17.1796 11.4674 17.1667 10.9168C17.1796 10.3661 17.0806 9.81851 16.8757 9.30719C16.6708 8.79587 16.3644 8.33141 15.9749 7.94192C15.5854 7.55242 15.121 7.24598 14.6096 7.04112C14.0983 6.83627 13.5507 6.73726 13.0001 6.75009ZM13.0001 13.0001C12.7229 13.0135 12.4461 12.9688 12.1872 12.8688C11.9284 12.7689 11.6933 12.6159 11.4971 12.4197C11.301 12.2235 11.148 11.9884 11.048 11.7296C10.948 11.4708 10.9033 11.1939 10.9167 10.9168C10.9033 10.6396 10.948 10.3627 11.048 10.1039C11.148 9.84509 11.301 9.61003 11.4971 9.41384C11.6933 9.21764 11.9284 9.06466 12.1872 8.9647C12.4461 8.86474 12.7229 8.82003 13.0001 8.83342C13.2772 8.82003 13.5541 8.86474 13.8129 8.9647C14.0717 9.06466 14.3068 9.21764 14.503 9.41384C14.6992 9.61003 14.8522 9.84509 14.9521 10.1039C15.0521 10.3627 15.0968 10.6396 15.0834 10.9168C15.0968 11.1939 15.0521 11.4708 14.9521 11.7296C14.8522 11.9884 14.6992 12.2235 14.503 12.4197C14.3068 12.6159 14.0717 12.7689 13.8129 12.8688C13.5541 12.9688 13.2772 13.0135 13.0001 13.0001Z" fill="currentColor"/>
</svg>
