<svg width="21" height="15" viewBox="0 0 21 15" fill="none" xmlns="http://www.w3.org/2000/svg">
<path d="M20.593 2.20301C20.4791 1.78041 20.2565 1.39501 19.9474 1.08518C19.6383 0.775338 19.2534 0.551868 18.831 0.437007C17.265 0.00700739 11 7.59651e-06 11 7.59651e-06C11 7.59651e-06 4.73602 -0.00699261 3.16902 0.404007C2.74695 0.524154 2.36285 0.750785 2.05359 1.06214C1.74433 1.3735 1.52031 1.75913 1.40302 2.18201C0.990025 3.74801 0.986024 6.99601 0.986024 6.99601C0.986024 6.99601 0.982024 10.26 1.39202 11.81C1.62202 12.667 2.29702 13.344 3.15502 13.575C4.73702 14.005 10.985 14.012 10.985 14.012C10.985 14.012 17.25 14.019 18.816 13.609C19.2385 13.4943 19.6238 13.2714 19.9337 12.9622C20.2436 12.653 20.4674 12.2682 20.583 11.846C20.997 10.281 21 7.03401 21 7.03401C21 7.03401 21.02 3.76901 20.593 2.20301ZM8.99603 10.005L9.00103 4.00501L14.208 7.01001L8.99603 10.005Z" fill="currentColor"/>
</svg>
