<svg xmlns="http://www.w3.org/2000/svg" width="166" height="46" viewBox="0 0 166 46" fill="none">
        <g clip-path="url(#clip0_10339_10498)">
            <path d="M22.8609 24.9121C22.3457 20.1336 24.3147 15.1445 27.9146 12.1083C31.5145 9.07207 36.6339 8.08037 41.0509 9.56792C42.17 9.9449 43.2824 10.4985 44.0241 11.446C44.1127 11.5581 44.198 11.6838 44.2079 11.8264C44.221 12.0064 44.1127 12.1728 44.011 12.3189C42.613 14.3226 41.215 16.3264 39.8203 18.3268L39.886 18.3811C37.3854 16.4181 34.0808 15.7117 30.9698 16.1396C29.4996 16.3434 28.0327 16.8019 26.8448 17.7189C25.2138 18.9789 24.2753 20.9521 23.3958 22.8506" fill="#5BB6AC" />
            <path d="M22.8676 24.9121C23.3828 20.1336 21.4138 15.1445 17.8139 12.1083C14.2139 9.07207 9.0946 8.08037 4.67754 9.56792C3.5585 9.9449 2.44603 10.4985 1.70439 11.446C1.61578 11.5581 1.53046 11.6838 1.52062 11.8264C1.50749 12.0064 1.61578 12.1728 1.71751 12.3189C3.11549 14.3226 4.51346 16.3264 5.90815 18.3268L5.84251 18.3811C8.34311 16.4181 11.6477 15.7117 14.7587 16.1396C16.2288 16.3434 17.6957 16.8019 18.8837 17.7189C20.5146 18.9789 21.4532 20.9521 22.3327 22.8506" fill="#5BB6AC" />
            <path d="M22.8643 10.3015C25.4796 10.3015 27.5997 8.10737 27.5997 5.40075C27.5997 2.69414 25.4796 0.5 22.8643 0.5C20.249 0.5 18.1289 2.69414 18.1289 5.40075C18.1289 8.10737 20.249 10.3015 22.8643 10.3015Z" fill="#5BB6AC" />
            <path d="M32.4203 22.3547C27.1566 22.3547 22.8905 26.7698 22.8905 32.2174H22.8347C22.8347 26.7698 18.5686 22.3547 13.3049 22.3547H0.5C0.5 35.1381 10.5122 45.5 22.8643 45.5C35.2163 45.5 45.2285 35.1381 45.2285 22.3547H32.4203ZM23.0283 42.277C13.4723 42.277 5.52088 35.0362 4.03103 25.5777H12.9078C13.9875 25.6796 15.6119 25.9989 17.2822 27.0279C17.8893 27.4015 18.8115 27.9891 19.6548 29.0724C20.4129 30.0472 20.5179 30.6789 21.4794 33.0596C21.7879 33.8272 22.2473 34.9275 22.8544 36.2487C23.2088 35.4608 23.7437 34.2585 24.3738 32.7675C25.2467 30.7094 25.3977 30.2509 25.9129 29.4494C26.4117 28.6785 27.1829 27.483 28.6334 26.6034C30.1724 25.6728 31.7017 25.5574 32.5844 25.5777H42.0257C40.5325 35.0362 32.5811 42.277 23.0283 42.277Z" fill="#5BB6AC" />
            <path d="M61.3873 5.28529V19.6174H58.6111V5.28529H61.3873Z" fill="white" />
            <path d="M73.3914 9.36076C74.1986 10.2166 74.6023 11.4121 74.6023 12.9438V19.6174H71.826V13.3343C71.826 12.4309 71.6062 11.7381 71.173 11.2491C70.7365 10.7634 70.1425 10.5189 69.3878 10.5189C68.633 10.5189 68.0161 10.7634 67.573 11.2491C67.13 11.7347 66.9069 12.4309 66.9069 13.3343V19.6174H64.1306V8.24H66.9069V9.65623C67.2777 9.16377 67.7502 8.7766 68.3245 8.49472C68.8988 8.21623 69.5322 8.07359 70.218 8.07359C71.5274 8.07359 72.5841 8.50151 73.3914 9.35736V9.36076Z" fill="white" />
            <path d="M80.4731 10.6004V16.1023C80.4731 16.486 80.5617 16.7645 80.7389 16.9343C80.9161 17.1041 81.218 17.1925 81.6414 17.1925H82.931V19.614H81.1852C78.8454 19.614 77.6739 18.4355 77.6739 16.0819V10.6004H76.3645V8.24H77.6739V5.42793H80.4698V8.24H82.9277V10.6004H80.4698H80.4731Z" fill="white" />
            <path d="M95.073 14.7913H87.0396C87.1052 15.6132 87.3842 16.2551 87.8732 16.7204C88.3621 17.1857 88.9627 17.42 89.678 17.42C90.7085 17.42 91.4436 16.9615 91.88 16.0445H94.8761C94.5578 17.1415 93.9507 18.0381 93.0516 18.7445C92.1524 19.4509 91.0465 19.8008 89.7371 19.8008C88.6804 19.8008 87.7288 19.5562 86.8887 19.0706C86.0486 18.5849 85.3922 17.8989 84.9263 17.0057C84.457 16.1158 84.2207 15.0902 84.2207 13.9253C84.2207 12.7604 84.4504 11.7143 84.9164 10.8245C85.3791 9.93472 86.0256 9.25208 86.8591 8.76981C87.6927 8.29094 88.6509 8.04981 89.7371 8.04981C90.8233 8.04981 91.7159 8.28415 92.5429 8.74944C93.3699 9.21472 94.0098 9.87698 94.4659 10.7294C94.9221 11.5853 95.1518 12.5668 95.1518 13.6774C95.1518 14.0883 95.1255 14.4585 95.073 14.7845V14.7913ZM92.2771 12.8623C92.264 12.1219 92.008 11.5309 91.5026 11.086C91.0005 10.6411 90.3836 10.4204 89.6584 10.4204C88.9725 10.4204 88.3916 10.6343 87.9224 11.0657C87.4531 11.497 87.1643 12.0947 87.0593 12.8623H92.2771Z" fill="white" />
            <path d="M106.441 9.36076C107.248 10.2166 107.652 11.4121 107.652 12.9438V19.6174H104.872V13.3343C104.872 12.4309 104.655 11.7381 104.219 11.2491C103.783 10.7634 103.189 10.5189 102.434 10.5189C101.679 10.5189 101.062 10.7634 100.619 11.2491C100.176 11.7347 99.9562 12.4309 99.9562 13.3343V19.6174H97.1799V8.24H99.9562V9.65623C100.327 9.16377 100.8 8.7766 101.374 8.49472C101.951 8.21623 102.581 8.07359 103.267 8.07359C104.577 8.07359 105.633 8.50151 106.441 9.35736V9.36076Z" fill="white" />
            <path d="M113.522 10.6004V16.1023C113.522 16.486 113.611 16.7645 113.791 16.9343C113.969 17.1041 114.271 17.1925 114.694 17.1925H115.984V19.614H114.238C111.895 19.614 110.726 18.4355 110.726 16.0819V10.6004H109.417V8.24H110.726V5.42793H113.522V8.24H115.984V10.6004H113.522Z" fill="white" />
            <path d="M118.176 6.40265C117.851 6.08 117.69 5.67925 117.69 5.20038C117.69 4.72151 117.851 4.32076 118.176 3.99812C118.501 3.67548 118.904 3.51585 119.396 3.51585C119.889 3.51585 120.292 3.67548 120.617 3.99812C120.942 4.32076 121.103 4.72151 121.103 5.20038C121.103 5.67925 120.942 6.08 120.617 6.40265C120.292 6.72529 119.885 6.88491 119.396 6.88491C118.907 6.88491 118.501 6.72529 118.176 6.40265ZM120.765 8.24001V19.614H117.989V8.24001H120.765Z" fill="white" />
            <path d="M125.527 19.0706C124.68 18.5849 124.017 17.8989 123.531 17.0057C123.049 16.1158 122.806 15.0902 122.806 13.9253C122.806 12.7604 123.052 11.7347 123.551 10.8449C124.047 9.9551 124.723 9.26906 125.586 8.78C126.445 8.29434 127.404 8.04981 128.464 8.04981C129.524 8.04981 130.479 8.29434 131.338 8.78C132.198 9.26566 132.877 9.9551 133.373 10.8449C133.868 11.7347 134.118 12.7604 134.118 13.9253C134.118 15.0902 133.862 16.1158 133.353 17.0057C132.845 17.8955 132.155 18.5849 131.289 19.0706C130.423 19.5562 129.455 19.8008 128.382 19.8008C127.309 19.8008 126.37 19.5562 125.523 19.0706H125.527ZM129.803 16.914C130.246 16.6592 130.6 16.2823 130.866 15.7728C131.132 15.2668 131.263 14.6521 131.263 13.9253C131.263 12.8453 130.987 12.0132 130.439 11.4325C129.891 10.8517 129.218 10.5596 128.424 10.5596C127.63 10.5596 126.967 10.8517 126.429 11.4325C125.894 12.0132 125.625 12.8453 125.625 13.9253C125.625 15.0053 125.888 15.8374 126.409 16.4181C126.931 16.9989 127.591 17.2909 128.382 17.2909C128.884 17.2909 129.356 17.1653 129.799 16.9106L129.803 16.914Z" fill="white" />
            <path d="M145.423 9.36076C146.23 10.2166 146.634 11.4121 146.634 12.9438V19.6174H143.858V13.3343C143.858 12.4309 143.638 11.7381 143.205 11.2491C142.768 10.7634 142.174 10.5189 141.42 10.5189C140.665 10.5189 140.048 10.7634 139.605 11.2491C139.162 11.7347 138.939 12.4309 138.939 13.3343V19.6174H136.162V8.24H138.939V9.65623C139.309 9.16377 139.782 8.7766 140.356 8.49472C140.931 8.21623 141.564 8.07359 142.25 8.07359C143.559 8.07359 144.616 8.50151 145.423 9.35736V9.36076Z" fill="white" />
            <path d="M149.223 10.8279C149.666 9.93811 150.267 9.25547 151.028 8.77321C151.789 8.29434 152.639 8.05321 153.578 8.05321C154.398 8.05321 155.117 8.22302 155.731 8.56604C156.344 8.90906 156.84 9.34038 157.207 9.86V8.2366H160.003V19.6106H157.207V17.9464C156.85 18.4796 156.357 18.9211 155.731 19.2709C155.104 19.6208 154.379 19.794 153.558 19.794C152.633 19.794 151.789 19.546 151.028 19.0536C150.267 18.5611 149.666 17.8649 149.223 16.9683C148.78 16.0717 148.56 15.0426 148.56 13.8777C148.56 12.7128 148.78 11.7075 149.223 10.8177V10.8279ZM156.814 12.1321C156.548 11.6328 156.19 11.2491 155.744 10.9808C155.294 10.7125 154.812 10.58 154.297 10.58C153.781 10.58 153.306 10.7091 152.869 10.9706C152.433 11.2321 152.078 11.6091 151.809 12.1117C151.537 12.6109 151.402 13.2019 151.402 13.8879C151.402 14.574 151.537 15.1717 151.809 15.6845C152.078 16.1974 152.436 16.5913 152.879 16.8664C153.322 17.1415 153.794 17.2774 154.297 17.2774C154.799 17.2774 155.294 17.1449 155.744 16.8766C156.193 16.6083 156.551 16.2279 156.814 15.7253C157.079 15.226 157.211 14.6283 157.211 13.9287C157.211 13.2291 157.079 12.6313 156.814 12.1321Z" fill="white" />
            <path d="M165.5 4.42264V19.6174H162.724V4.42264H165.5Z" fill="white" />
            <path d="M61.3283 37.7464H65.893V40.0253H58.552V25.6932H61.3283V37.7464Z" fill="white" />
            <path d="M67.8455 26.814C67.5207 26.4913 67.3599 26.0906 67.3599 25.6117C67.3599 25.1328 67.5207 24.7321 67.8455 24.4094C68.1704 24.0868 68.5773 23.9272 69.0663 23.9272C69.5553 23.9272 69.9622 24.0868 70.2871 24.4094C70.612 24.7321 70.7727 25.1328 70.7727 25.6117C70.7727 26.0906 70.6087 26.4913 70.2871 26.814C69.9622 27.1366 69.5553 27.2962 69.0663 27.2962C68.5773 27.2962 68.1704 27.1366 67.8455 26.814ZM70.4347 28.6513V40.0253H67.6585V28.6513H70.4347Z" fill="white" />
            <path d="M78.2122 31.0117H76.2892V40.0253H73.4703V31.0117H72.22V28.6513H73.4703V28.0774C73.4703 26.6815 73.8542 25.6559 74.6221 24.997C75.39 24.3415 76.5451 24.0325 78.0941 24.0732V26.4947C77.4213 26.4811 76.9488 26.5966 76.6863 26.8445C76.4237 27.0925 76.2892 27.5374 76.2892 28.1792V28.6513H78.2122V31.0117Z" fill="white" />
            <path d="M90.1538 35.1992H82.1204C82.1861 36.0211 82.465 36.663 82.954 37.1283C83.4429 37.5936 84.0435 37.8279 84.7589 37.8279C85.7893 37.8279 86.5244 37.3694 86.9608 36.4525H89.9569C89.6386 37.5494 89.0315 38.446 88.1324 39.1525C87.2332 39.8589 86.1273 40.2087 84.8179 40.2087C83.7612 40.2087 82.8096 39.9642 81.9695 39.4785C81.1294 38.9928 80.4731 38.3068 80.0071 37.4136C79.5378 36.5238 79.3015 35.4981 79.3015 34.3332C79.3015 33.1683 79.5312 32.1223 79.9972 31.2325C80.4599 30.3426 81.1064 29.66 81.9399 29.1777C82.7735 28.6989 83.7317 28.4577 84.8179 28.4577C85.9041 28.4577 86.7967 28.6921 87.6237 29.1574C88.4507 29.6226 89.0906 30.2849 89.5467 31.1374C90.0029 31.9932 90.2326 32.9747 90.2326 34.0853C90.2326 34.4962 90.2064 34.8664 90.1538 35.1925V35.1992ZM87.3579 33.2702C87.3448 32.5298 87.0888 31.9389 86.5834 31.494C86.0813 31.0491 85.4644 30.8283 84.7392 30.8283C84.0533 30.8283 83.4725 31.0423 83.0032 31.4736C82.5339 31.9049 82.2451 32.5026 82.1401 33.2702H87.3579Z" fill="white" />
            <path d="M112.075 25.6932V40.0253H109.296V30.7026L105.587 40.0253H103.484L99.7526 30.7026V40.0253H96.9763V25.6932H100.13L104.534 36.3506L108.938 25.6932H112.072H112.075Z" fill="#5BB6AC" />
            <path d="M124.949 35.1992H116.916C116.981 36.0211 117.26 36.663 117.749 37.1283C118.238 37.5936 118.839 37.8279 119.554 37.8279C120.584 37.8279 121.32 37.3694 121.756 36.4525H124.752C124.434 37.5494 123.827 38.446 122.928 39.1525C122.028 39.8589 120.922 40.2087 119.613 40.2087C118.556 40.2087 117.605 39.9642 116.765 39.4785C115.925 38.9928 115.268 38.3068 114.802 37.4136C114.333 36.5238 114.097 35.4981 114.097 34.3332C114.097 33.1683 114.326 32.1223 114.792 31.2325C115.255 30.3426 115.902 29.66 116.735 29.1777C117.569 28.6989 118.527 28.4577 119.613 28.4577C120.699 28.4577 121.592 28.6921 122.419 29.1574C123.246 29.6226 123.886 30.2849 124.342 31.1374C124.798 31.9932 125.028 32.9747 125.028 34.0853C125.028 34.4962 125.002 34.8664 124.949 35.1925V35.1992ZM122.153 33.2702C122.14 32.5298 121.884 31.9389 121.379 31.494C120.877 31.0491 120.26 30.8283 119.534 30.8283C118.848 30.8283 118.268 31.0423 117.798 31.4736C117.329 31.9049 117.04 32.5026 116.935 33.2702H122.153Z" fill="#5BB6AC" />
            <path d="M127.003 31.2392C127.446 30.3494 128.05 29.6668 128.818 29.1845C129.586 28.7057 130.439 28.4645 131.378 28.4645C132.093 28.4645 132.772 28.6242 133.422 28.9468C134.069 29.2694 134.587 29.6974 134.971 30.2306V24.8306H137.787V40.0253H134.971V38.3408C134.627 38.9011 134.144 39.3528 133.524 39.6959C132.9 40.0389 132.182 40.2087 131.361 40.2087C130.436 40.2087 129.589 39.9608 128.821 39.4683C128.053 38.9758 127.45 38.2796 127.007 37.383C126.564 36.4864 126.344 35.4574 126.344 34.2925C126.344 33.1275 126.564 32.1223 127.007 31.2325L127.003 31.2392ZM134.594 32.5434C134.328 32.0442 133.97 31.6604 133.524 31.3921C133.078 31.1238 132.592 30.9913 132.077 30.9913C131.562 30.9913 131.086 31.1204 130.649 31.3819C130.213 31.6434 129.858 32.0204 129.589 32.523C129.317 33.0223 129.182 33.6132 129.182 34.2992C129.182 34.9853 129.317 35.583 129.589 36.0958C129.858 36.6087 130.216 37.0026 130.659 37.2777C131.102 37.5528 131.575 37.6887 132.077 37.6887C132.579 37.6887 133.074 37.5562 133.524 37.2879C133.974 37.0196 134.331 36.6392 134.594 36.1366C134.86 35.6374 134.991 35.0396 134.991 34.34C134.991 33.6404 134.86 33.0426 134.594 32.5434Z" fill="#5BB6AC" />
            <path d="M140.694 26.814C140.369 26.4913 140.208 26.0906 140.208 25.6117C140.208 25.1328 140.369 24.7321 140.694 24.4094C141.019 24.0868 141.423 23.9272 141.915 23.9272C142.407 23.9272 142.811 24.0868 143.136 24.4094C143.461 24.7321 143.621 25.1328 143.621 25.6117C143.621 26.0906 143.461 26.4913 143.136 26.814C142.811 27.1366 142.404 27.2962 141.915 27.2962C141.426 27.2962 141.019 27.1366 140.694 26.814ZM143.283 28.6513V40.0253H140.507V28.6513H143.283Z" fill="#5BB6AC" />
            <path d="M145.968 31.2392C146.411 30.3494 147.011 29.6668 147.773 29.1845C148.534 28.7057 149.384 28.4645 150.323 28.4645C151.143 28.4645 151.862 28.6343 152.475 28.9774C153.089 29.3204 153.584 29.7517 153.952 30.2713V28.6479H156.748V40.0219H153.952V38.3577C153.594 38.8909 153.102 39.3325 152.475 39.6823C151.848 40.0321 151.123 40.2053 150.303 40.2053C149.377 40.2053 148.534 39.9574 147.773 39.4649C147.011 38.9725 146.411 38.2762 145.968 37.3796C145.525 36.483 145.305 35.454 145.305 34.2891C145.305 33.1241 145.525 32.1189 145.968 31.2291V31.2392ZM153.558 32.5434C153.292 32.0441 152.935 31.6604 152.488 31.3921C152.039 31.1238 151.556 30.9913 151.041 30.9913C150.526 30.9913 150.05 31.1204 149.614 31.3819C149.177 31.6434 148.823 32.0204 148.554 32.523C148.281 33.0223 148.147 33.6132 148.147 34.2992C148.147 34.9853 148.281 35.583 148.554 36.0958C148.823 36.6087 149.181 37.0026 149.624 37.2777C150.067 37.5528 150.539 37.6887 151.041 37.6887C151.543 37.6887 152.039 37.5562 152.488 37.2879C152.938 37.0196 153.296 36.6392 153.558 36.1366C153.824 35.6374 153.955 35.0396 153.955 34.34C153.955 33.6404 153.824 33.0426 153.558 32.5434Z" fill="#5BB6AC" />
        </g>
        <defs>
            <clipPath id="clip0_10339_10498">
                <rect width="165" height="45" fill="white" transform="translate(0.5 0.5)" />
            </clipPath>
        </defs>
    </svg>