<svg width="200" height="56" viewBox="0 0 200 56" fill="none" xmlns="http://www.w3.org/2000/svg">
<path d="M79.615 37.0475H83.7736V29.9184H85.5817L89.9986 37.0475H94.4413L89.5595 29.1952C91.7293 28.5495 93.3565 27.0771 93.3565 24.2875V24.1842C93.3565 20.3614 90.5927 18.5791 86.2275 18.5791H79.615V37.0475ZM83.7736 27.0771V21.782H86.1241C88.1389 21.782 89.2754 22.4278 89.2754 24.3133V24.4167C89.2754 26.199 88.2164 27.0771 86.1241 27.0771H83.7736Z" fill="white"/>
<path d="M101.579 37.3316C105.273 37.3316 107.598 35.7044 108.037 32.7855H104.498C104.266 33.9221 103.413 34.6712 101.683 34.6712C99.6421 34.6712 98.4281 33.3797 98.3248 31.1325H108.063V30.0993C108.063 25.269 104.963 23.2285 101.476 23.2285C97.5499 23.2285 94.5277 25.9923 94.5277 30.2542V30.4608C94.5277 34.7745 97.4982 37.3316 101.579 37.3316ZM98.3764 28.8336C98.6605 26.9222 99.797 25.8115 101.476 25.8115C103.258 25.8115 104.291 26.793 104.421 28.8336H98.3764Z" fill="white"/>
<path d="M109.843 37.0475H113.562V17.4167H109.843V37.0475Z" fill="white"/>
<path d="M120.698 37.3316C122.92 37.3316 124.288 36.2984 124.986 34.9295V37.0475H128.705V23.5385H124.986V31.4682C124.986 33.4572 123.746 34.4387 122.171 34.4387C120.57 34.4387 119.82 33.5604 119.82 31.7265V23.5385H116.101V32.2431C116.101 35.7818 118.064 37.3316 120.698 37.3316Z" fill="white"/>
<path d="M131.245 37.0475H134.99V29.0661C134.99 27.2322 136.152 26.3022 137.599 26.3022C138.917 26.3022 139.717 27.0771 139.717 28.8078V37.0475H143.437V29.0661C143.437 27.2322 144.599 26.3022 146.045 26.3022C147.388 26.3022 148.164 27.0771 148.164 28.8078V37.0475H151.883V28.3945C151.883 24.8041 149.946 23.2285 147.44 23.2285C145.735 23.2285 143.979 23.9517 142.894 25.579C142.249 23.9776 140.905 23.2285 139.123 23.2285C137.108 23.2285 135.662 24.3392 134.99 25.6048V23.5384H131.245V37.0475Z" fill="white"/>
<path d="M160.532 37.3316C164.226 37.3316 166.551 35.7044 166.989 32.7855H163.451C163.218 33.9221 162.366 34.6712 160.635 34.6712C158.594 34.6712 157.381 33.3797 157.277 31.1325H167.015V30.0993C167.015 25.269 163.915 23.2285 160.428 23.2285C156.502 23.2285 153.48 25.9923 153.48 30.2542V30.4608C153.48 34.7745 156.451 37.3316 160.532 37.3316ZM157.329 28.8336C157.613 26.9222 158.75 25.8115 160.428 25.8115C162.211 25.8115 163.244 26.793 163.374 28.8336H157.329Z" fill="white"/>
<path fill-rule="evenodd" clip-rule="evenodd" d="M65.303 19.684L65.0519 19.2356C64.728 18.6932 64.2712 18.2425 63.7246 17.9261L51.6885 10.9843C51.1435 10.6682 50.5249 10.5011 49.8948 10.5H49.3746C48.7445 10.5011 48.1259 10.6682 47.5808 10.9843L35.5449 17.9441C35.0013 18.2584 34.5498 18.7099 34.2354 19.2535L33.9843 19.7019C33.6682 20.2469 33.5011 20.8656 33.5 21.4956V35.3972C33.5011 36.0273 33.6682 36.6459 33.9843 37.1909L34.2354 37.6393C34.5579 38.1766 35.0076 38.6263 35.5449 38.9488L47.5988 45.8905C48.1411 46.2132 48.7616 46.3808 49.3925 46.3748H49.8948C50.5249 46.3737 51.1435 46.2066 51.6885 45.8905L63.7246 38.9309C64.2735 38.6236 64.7267 38.1704 65.0339 37.6214L65.303 37.173C65.6154 36.6264 65.7822 36.0087 65.7873 35.3792V21.4777C65.7863 20.8477 65.6192 20.229 65.303 19.684ZM49.3746 14.0874H49.8948L60.4062 20.1503L49.6437 26.3566L38.8812 20.1503L49.3746 14.0874ZM51.4374 41.8906L61.9308 35.8277L62.1998 35.3793V23.2536L51.4374 29.4779V41.8906Z" fill="white"/>
</svg>
