<svg width="121" height="48" viewBox="0 0 121 48" fill="none" xmlns="http://www.w3.org/2000/svg">
<path d="M40.4703 20.9536C40.4703 18.9064 38.4853 16.7347 35.0436 16.7347C31.1773 16.7347 26.9365 19.5652 26.2801 25.2212C25.6176 30.9395 29.1777 33.4663 32.7548 33.4663C36.3307 33.4663 38.2132 32.0729 40.125 30.2051C38.4743 28.1261 36.3454 29.0936 35.9428 29.2962C35.4974 29.5194 34.913 29.8281 33.7259 29.8281C32.34 29.8281 30.9345 29.201 30.9345 26.6279C39.7944 25.7788 40.4703 23.002 40.4703 20.9536ZM36.0794 21.2964C36.022 21.9272 35.7634 23.0191 31.2798 23.6194C32.2253 20.2618 34.0285 20.0129 34.8618 20.0129C35.6426 20.0129 36.1404 20.618 36.0794 21.2964ZM21.073 21.8417C21.073 21.8417 19.1673 27.8175 19.0196 28.3189C18.9684 27.8175 17.5739 17.0837 17.5739 17.0837C14.3286 17.0837 12.5925 19.3895 11.6775 21.8393C11.6775 21.8393 9.3594 27.8321 9.17152 28.3336C9.16057 27.8638 8.81527 21.9016 8.81527 21.9016C8.61885 18.9051 5.88355 17.0909 3.66675 17.0909L6.33253 33.3528C9.73762 33.3418 11.5603 31.0396 12.5218 28.5947C12.5218 28.5947 14.5604 23.307 14.6446 23.0667C14.6653 23.2961 16.1111 33.3528 16.1111 33.3528C19.5187 33.3528 21.3572 31.197 22.3467 28.8399L27.128 17.0909C23.7607 17.0909 21.988 19.3907 21.073 21.8417ZM52.9854 16.7127C50.8906 16.7127 49.2765 17.851 47.9174 19.5334L47.9198 19.5212L49.1277 9.75C46.3387 9.75 44.0597 12.1779 43.6265 15.7794L41.5049 33.2259C43.1141 33.2259 44.8185 32.7586 45.7384 31.5764C46.5619 32.6341 47.7856 33.4772 49.5973 33.4772C54.3006 33.4772 57.5337 28.0103 57.5337 22.8776C57.5337 18.1939 55.2547 16.7127 52.9854 16.7127ZM52.5536 25.0944C52.0655 27.9639 50.4709 29.8988 48.9263 29.8988C47.3696 29.8988 46.712 29.2108 46.712 29.2108C47.0023 26.7024 47.1951 25.1639 47.7625 23.839C48.3286 22.514 49.6669 20.3997 51.0675 20.3997C52.429 20.3997 53.0416 22.2261 52.5536 25.0944ZM69.3241 17.0922H66.0313L66.0471 16.9201C66.2716 14.7704 66.7864 13.6419 68.453 13.4687C69.5913 13.3516 70.1062 12.7598 70.2257 12.1205C70.3197 11.6191 70.6381 9.84637 70.6381 9.84637C64.0328 9.80857 61.9624 12.6598 61.4342 16.9934L61.4219 17.0909L61.3573 17.0934C60.2848 17.0934 59.1076 18.3074 58.9013 19.8494L58.8294 20.4167H61.0255L59.182 35.6782L58.6232 38.4208L58.8501 38.4281C61.9331 38.311 63.917 35.8795 64.3549 32.3389L65.7946 20.4167H66.8267C67.8369 20.4167 69.024 19.4042 69.2436 17.7119L69.3241 17.0922ZM86.412 16.8092C82.6178 16.8092 79.0417 19.6018 77.9422 23.9951C76.8442 28.3873 78.5137 33.5736 84.09 33.5736C89.6685 33.5736 92.8732 28.1676 92.8732 23.6792C92.8732 19.1882 89.838 16.8092 86.412 16.8092ZM87.9502 24.9638C87.7537 26.9561 86.8755 29.966 84.4747 29.966C82.0635 29.966 82.4062 26.434 82.6395 24.7577C82.89 22.9605 83.8995 20.4167 86.0482 20.4167C87.9893 20.4167 88.1722 22.714 87.9502 24.9638ZM111.611 21.8417C111.611 21.8417 109.705 27.8175 109.558 28.3189C109.506 27.8175 108.112 17.0837 108.112 17.0837C104.866 17.0837 103.131 19.3895 102.215 21.8393C102.215 21.8393 99.8985 27.8321 99.7103 28.3336C99.699 27.8638 99.354 21.9016 99.354 21.9016C99.1575 18.9051 96.4208 17.0909 94.2052 17.0909L96.87 33.3528C100.275 33.3418 102.099 31.0396 103.06 28.5947C103.06 28.5947 105.099 23.307 105.183 23.0667C105.204 23.2961 106.648 33.3528 106.648 33.3528C110.057 33.3528 111.895 31.197 112.884 28.8399L117.667 17.0909C114.299 17.0909 112.525 19.3907 111.611 21.8417ZM72.423 9.84637L69.6584 32.1437L69.6511 32.1401L69.0898 34.8974L69.3156 34.9046C72.2924 34.868 74.4044 32.256 74.8021 28.9618L76.3987 16.1637C76.8832 12.2657 74.5593 9.84637 72.423 9.84637Z" fill="#2C3A3D"/>
</svg>
